<svg width="60" height="60" viewBox="0 0 60 60" fill="none" xmlns="http://www.w3.org/2000/svg">
<path d="M38.4012 11C36.2512 7.125 33.2762 5 30.0012 5C26.7262 5 23.7512 7.125 21.6012 11L5.60116 39.8C3.57616 43.475 3.35116 47 4.97616 49.775C6.60116 52.55 9.80116 54.075 14.0012 54.075H46.0012C50.2012 54.075 53.4012 52.55 55.0262 49.775C56.6512 47 56.4262 43.45 54.4012 39.8L38.4012 11Z" fill="#FFF0E5"/>
<path d="M28.125 35V22.5C28.125 21.475 28.975 20.625 30 20.625C31.025 20.625 31.875 21.475 31.875 22.5V35C31.875 36.025 31.025 36.875 30 36.875C28.975 36.875 28.125 36.025 28.125 35Z" fill="#CA6E60"/>
<path d="M29.5 44.9504C29.35 44.9254 29.2 44.8754 29.05 44.8004C28.9 44.7504 28.75 44.6754 28.6 44.5754C28.475 44.4754 28.35 44.3754 28.225 44.2754C27.775 43.8004 27.5 43.1504 27.5 42.5004C27.5 41.8504 27.775 41.2004 28.225 40.7254C28.35 40.6254 28.475 40.5254 28.6 40.4254C28.75 40.3254 28.9 40.2504 29.05 40.2004C29.2 40.1254 29.35 40.0754 29.5 40.0504C29.825 39.9754 30.175 39.9754 30.475 40.0504C30.65 40.0754 30.8 40.1254 30.95 40.2004C31.1 40.2504 31.25 40.3254 31.4 40.4254C31.525 40.5254 31.65 40.6254 31.775 40.7254C32.225 41.2004 32.5 41.8504 32.5 42.5004C32.5 43.1504 32.225 43.8004 31.775 44.2754C31.65 44.3754 31.525 44.4754 31.4 44.5754C31.25 44.6754 31.1 44.7504 30.95 44.8004C30.8 44.8754 30.65 44.9254 30.475 44.9504C30.325 44.9754 30.15 45.0004 30 45.0004C29.85 45.0004 29.675 44.9754 29.5 44.9504Z" fill="#CA6E60"/>
</svg>
