<svg width="60" height="60" viewBox="0 0 60 60" fill="none" xmlns="http://www.w3.org/2000/svg">
<path d="M55 30.45C55 16.45 43.75 5 30 5C16.25 5 5 16.45 5 30.45V50.175C5 53.325 6.87496 54.175 9.17496 52.075L11.675 49.8C12.6 48.95 14.1 48.95 15.025 49.8L20.025 54.375C20.95 55.225 22.4499 55.225 23.3749 54.375L28.3749 49.8C29.2999 48.95 30.8 48.95 31.725 49.8L36.725 54.375C37.65 55.225 39.1501 55.225 40.0751 54.375L45.0751 49.8C46.0001 48.95 47.5 48.95 48.425 49.8L50.925 52.075C53.125 54.175 55 53.325 55 50.175V30.45Z" fill="#E2E8F9"/>
<path d="M18.8756 36.5007C18.0506 35.8757 17.8757 34.7007 18.5007 33.8757C19.1257 33.0507 20.3007 32.8757 21.1257 33.5007C26.3507 37.4257 33.6506 37.4257 38.8756 33.5007C39.7006 32.8757 40.8756 33.0507 41.5006 33.8757C42.1256 34.7007 41.9507 35.8757 41.1257 36.5007C37.8507 38.9507 33.9257 40.1757 30.0007 40.1757C26.0757 40.1757 22.1506 38.9507 18.8756 36.5007Z" fill="#4259E9"/>
<path fill-rule="evenodd" clip-rule="evenodd" d="M29.9979 28.4508C26.7118 28.4508 24.0479 25.7869 24.0479 22.5008C24.0479 19.2147 26.7118 16.5508 29.9979 16.5508C33.284 16.5508 35.9479 19.2147 35.9479 22.5008C35.9479 25.7869 33.284 28.4508 29.9979 28.4508Z" fill="#4259E9"/>
</svg>
