<svg viewBox="0 0 16 16" fill="none" xmlns="http://www.w3.org/2000/svg">
<path d="M2.66699 3.33366C2.66699 2.96547 2.96547 2.66699 3.33366 2.66699H6.00033C6.36852 2.66699 6.66699 2.96547 6.66699 3.33366V6.00033C6.66699 6.36852 6.36852 6.66699 6.00033 6.66699H3.33366C2.96547 6.66699 2.66699 6.36852 2.66699 6.00033V3.33366Z" stroke="currentColor" stroke-width="1.33333" stroke-linecap="round" stroke-linejoin="round"/>
<path d="M2.66699 10.0003C2.66699 9.63214 2.96547 9.33366 3.33366 9.33366H6.00033C6.36852 9.33366 6.66699 9.63214 6.66699 10.0003V12.667C6.66699 13.0352 6.36852 13.3337 6.00033 13.3337H3.33366C2.96547 13.3337 2.66699 13.0352 2.66699 12.667V10.0003Z" stroke="currentColor" stroke-width="1.33333" stroke-linecap="round" stroke-linejoin="round"/>
<path d="M9.33366 3.33366C9.33366 2.96547 9.63214 2.66699 10.0003 2.66699H12.667C13.0352 2.66699 13.3337 2.96547 13.3337 3.33366V6.00033C13.3337 6.36852 13.0352 6.66699 12.667 6.66699H10.0003C9.63214 6.66699 9.33366 6.36852 9.33366 6.00033V3.33366Z" stroke="currentColor" stroke-width="1.33333" stroke-linecap="round" stroke-linejoin="round"/>
<path d="M9.33366 10.0003C9.33366 9.63214 9.63214 9.33366 10.0003 9.33366H12.667C13.0352 9.33366 13.3337 9.63214 13.3337 10.0003V12.667C13.3337 13.0352 13.0352 13.3337 12.667 13.3337H10.0003C9.63214 13.3337 9.33366 13.0352 9.33366 12.667V10.0003Z" stroke="currentColor" stroke-width="1.33333" stroke-linecap="round" stroke-linejoin="round"/>
</svg>
