<svg viewBox="0 0 16 16" fill="none" xmlns="http://www.w3.org/2000/svg">
<path d="M10.0003 11.3337V12.0003C10.0003 13.1049 9.1049 14.0003 8.00033 14.0003C6.89576 14.0003 6.00033 13.1049 6.00033 12.0003V11.3337M10.0003 11.3337H6.00033M10.0003 11.3337H12.394C12.649 11.3337 12.7771 11.3337 12.8804 11.2988C13.0776 11.2323 13.232 11.0774 13.2985 10.8802C13.3335 10.7765 13.3335 10.648 13.3335 10.391C13.3335 10.2785 13.3333 10.2222 13.3245 10.1686C13.3079 10.0673 13.2686 9.97122 13.2087 9.8878C13.1771 9.84373 13.1368 9.8035 13.0575 9.72421L12.7979 9.46452C12.7141 9.38073 12.667 9.26708 12.667 9.1486V6.66699C12.667 4.08966 10.5777 2.00032 8.00033 2.00033C5.423 2.00033 3.33366 4.08967 3.33366 6.66699V9.14861C3.33366 9.2671 3.28649 9.38073 3.2027 9.46452L2.94303 9.72419C2.86351 9.80372 2.82369 9.84369 2.79199 9.88782C2.7321 9.97124 2.69242 10.0673 2.67579 10.1686C2.66699 10.2222 2.66699 10.2785 2.66699 10.391C2.66699 10.648 2.66699 10.7765 2.70196 10.8802C2.76849 11.0774 2.92352 11.2323 3.12077 11.2988C3.22403 11.3337 3.35167 11.3337 3.6067 11.3337H6.00033M12.0127 1.34277C12.9322 2.03565 13.6565 2.95484 14.1153 4.01082M3.9883 1.34277C3.06883 2.03565 2.34446 2.95484 1.88574 4.01082" stroke="currentColor" stroke-width="1.33333" stroke-linecap="round" stroke-linejoin="round"/>
</svg>
