<svg viewBox="0 0 16 16" fill="none" xmlns="http://www.w3.org/2000/svg">
<path d="M2 9.99983V11.1997C2 11.9464 2 12.3195 2.14532 12.6047C2.27316 12.8556 2.47698 13.06 2.72786 13.1878C3.0128 13.333 3.386 13.333 4.13127 13.333H14.0001M2 9.99983V3.33301M2 9.99983L4.56893 7.85905L4.57106 7.85735C5.03578 7.47008 5.26859 7.27607 5.52103 7.19727C5.81925 7.10417 6.14047 7.1189 6.42904 7.23861C6.67367 7.34009 6.88817 7.55459 7.31717 7.9836L7.32148 7.9879C7.75714 8.42357 7.97556 8.64198 8.22411 8.74324C8.51824 8.86306 8.84569 8.87338 9.14714 8.77339C9.40271 8.68861 9.63613 8.48471 10.1029 8.07632L14 4.66634" stroke="currentColor" stroke-width="1.33333" stroke-linecap="round" stroke-linejoin="round"/>
</svg>
