<svg viewBox="0 0 16 16" fill="none" xmlns="http://www.w3.org/2000/svg">
<path d="M12.1053 6.01221V9.61899C12.1053 10.072 12.1053 10.2984 12.0177 10.4937C11.9889 10.5579 11.9535 10.6188 11.9119 10.6755C11.7854 10.8481 11.5885 10.96 11.1947 11.1839L8.88945 12.4941C8.50435 12.713 8.3118 12.8225 8.10319 12.8441C8.03458 12.8512 7.96543 12.8512 7.89682 12.8441C7.68821 12.8225 7.49566 12.713 7.11056 12.4941L4.80529 11.1839C4.41148 10.96 4.21458 10.8481 4.08811 10.6755C4.04654 10.6188 4.01107 10.5579 3.98229 10.4937C3.89474 10.2984 3.89474 10.072 3.89474 9.61898V6.0122M14 5.09491L8.75266 2.67947C8.4241 2.52823 8.25982 2.45261 8.08617 2.43759C8.02883 2.43263 7.97117 2.43263 7.91383 2.43759C7.74018 2.45261 7.5759 2.52823 7.24734 2.67947L2 5.09491L7.21566 7.61995C7.55746 7.78543 7.72837 7.86817 7.90995 7.88459C7.96987 7.89 8.03014 7.89 8.09006 7.88459C8.27164 7.86817 8.44255 7.78543 8.78435 7.61995L14 5.09491ZM14 5.09491V11.2663C14 11.6581 14 11.854 13.932 12.0288C13.9096 12.0865 13.8818 12.1419 13.8492 12.1945C13.7501 12.3538 13.5934 12.4713 13.28 12.7063L12.5 13.2913" stroke="currentColor" stroke-width="1.33333" stroke-linecap="round" stroke-linejoin="round"/>
</svg>
