<svg viewBox="0 0 16 16" fill="none" xmlns="http://www.w3.org/2000/svg">
<path d="M13.3337 6.22255V4.00033C13.3337 3.26395 12.7367 2.66699 12.0003 2.66699H9.7781M13.3337 6.22255H9.7781M13.3337 6.22255V9.7781M2.66699 6.22255V4.00033C2.66699 3.26395 3.26395 2.66699 4.00033 2.66699H6.22255M2.66699 6.22255H6.22255M2.66699 6.22255V9.7781M9.7781 6.22255H6.22255M9.7781 6.22255V2.66699M9.7781 6.22255V9.7781M6.22255 6.22255V2.66699M6.22255 6.22255V9.7781M13.3337 9.7781V12.0003C13.3337 12.7367 12.7367 13.3337 12.0003 13.3337H9.7781M13.3337 9.7781H9.7781M2.66699 9.7781V12.0003C2.66699 12.7367 3.26395 13.3337 4.00033 13.3337H6.22255M2.66699 9.7781H6.22255M9.7781 9.7781H6.22255M9.7781 9.7781V13.3337M6.22255 9.7781V13.3337M6.22255 2.66699H9.7781M6.22255 13.3337H9.7781" stroke="currentColor" stroke-width="1.33333" stroke-linecap="round" stroke-linejoin="round"/>
</svg>
