<svg viewBox="0 0 16 16" fill="none" xmlns="http://www.w3.org/2000/svg">
<path d="M2.00003 11.3337C2 11.2907 2 11.2463 2 11.2005V4.80046C2 4.05372 2 3.68007 2.14532 3.39486C2.27316 3.14397 2.47698 2.94015 2.72786 2.81232C3.01308 2.66699 3.38673 2.66699 4.13346 2.66699H11.8668C12.6135 2.66699 12.9867 2.66699 13.2719 2.81232C13.5228 2.94015 13.727 3.14397 13.8548 3.39486C14 3.67979 14 4.05299 14 4.79827V11.2024C14 11.5257 14 11.7789 13.9881 11.9853M2.00003 11.3337C2.00055 11.9926 2.00891 12.3375 2.14532 12.6053C2.27316 12.8561 2.47698 13.0606 2.72786 13.1885C3.0128 13.3337 3.386 13.3337 4.13127 13.3337H11.8691C12.6143 13.3337 12.987 13.3337 13.2719 13.1885C13.5228 13.0606 13.727 12.8561 13.8548 12.6053C13.937 12.4439 13.9727 12.2545 13.9881 11.9853M2.00003 11.3337L5.17865 7.62533L5.17959 7.6243C5.46151 7.29539 5.60271 7.13066 5.77018 7.07129C5.91729 7.01913 6.07791 7.02035 6.22428 7.07454C6.39109 7.1363 6.53004 7.30291 6.80794 7.63639L8.58872 9.77333C8.84597 10.082 8.97534 10.2373 9.13242 10.2996C9.27097 10.3545 9.42377 10.3607 9.56673 10.3185C9.72947 10.2705 9.87272 10.1273 10.1592 9.84082L10.4906 9.50944C10.7822 9.21778 10.9281 9.07205 11.0931 9.02441C11.2381 8.98258 11.3931 8.99156 11.5326 9.04915C11.6913 9.11473 11.8201 9.27524 12.0778 9.59733L13.9881 11.9853M13.9881 11.9853L14 12.0001M10 6.66699C9.63181 6.66699 9.33333 6.36852 9.33333 6.00033C9.33333 5.63214 9.63181 5.33366 10 5.33366C10.3682 5.33366 10.6667 5.63214 10.6667 6.00033C10.6667 6.36852 10.3682 6.66699 10 6.66699Z" stroke="currentColor" stroke-width="1.33333" stroke-linecap="round" stroke-linejoin="round"/>
</svg>
