<svg viewBox="0 0 16 16" fill="none" xmlns="http://www.w3.org/2000/svg">
<path d="M2.66667 6.66699L6.73842 9.74179L6.73978 9.74292C7.1919 10.0745 7.41809 10.2403 7.66584 10.3044C7.88482 10.3611 8.115 10.3611 8.33398 10.3044C8.58195 10.2403 8.80881 10.0739 9.26172 9.74179L13.3333 6.66699M13.2001 6.02662L9.46745 3.03804C9.00398 2.66696 8.77205 2.48148 8.51432 2.40783C8.28692 2.34284 8.04613 2.3394 7.81702 2.39806C7.55735 2.46455 7.32058 2.64348 6.84701 3.00158L2.84635 6.02677C2.53587 6.26155 2.38082 6.37902 2.26888 6.52739C2.16973 6.65881 2.09585 6.80743 2.05083 6.96577C2 7.14455 2 7.33921 2 7.72847V11.867C2 12.6138 2 12.9873 2.14532 13.2726C2.27316 13.5234 2.47698 13.7273 2.72786 13.8551C3.0128 14.0003 3.386 14.0003 4.13127 14.0003H11.8687C12.614 14.0003 12.9867 14.0003 13.2716 13.8551C13.5225 13.7273 13.727 13.5233 13.8548 13.2724C14 12.9875 14 12.6146 14 11.8693V7.68464C14 7.31321 14 7.12634 13.9525 6.95373C13.9101 6.7998 13.8397 6.65474 13.746 6.52544C13.6403 6.3795 13.4939 6.26184 13.2001 6.02662Z" stroke="currentColor" stroke-width="1.33333" stroke-linecap="round" stroke-linejoin="round"/>
</svg>
