<svg viewBox="0 0 16 16" fill="none" xmlns="http://www.w3.org/2000/svg">
<path d="M13.3333 4.66667H11.8991C11.5674 4.66667 11.3333 4.33167 11.3333 4C11.3333 2.89543 10.4379 2 9.33333 2C8.22876 2 7.33333 2.89543 7.33333 4C7.33333 4.33167 7.09923 4.66667 6.76756 4.66667H5.33333C4.96514 4.66667 4.66667 4.96514 4.66667 5.33333V6.76756C4.66667 7.09923 4.33167 7.33333 4 7.33333C2.89543 7.33333 2 8.22876 2 9.33333C2 10.4379 2.89543 11.3333 4 11.3333C4.33167 11.3333 4.66667 11.5674 4.66667 11.8991V13.3333C4.66667 13.7015 4.96514 14 5.33333 14L13.3333 14C13.7015 14 14 13.7015 14 13.3333V11.8991C14 11.5674 13.665 11.3333 13.3333 11.3333C12.2288 11.3333 11.3333 10.4379 11.3333 9.33333C11.3333 8.22876 12.2288 7.33333 13.3333 7.33333C13.665 7.33333 14 7.09923 14 6.76756L14 5.33333C14 4.96514 13.7015 4.66667 13.3333 4.66667Z" stroke="currentColor" stroke-width="1.33333" stroke-linecap="round" stroke-linejoin="round"/>
</svg>
