<svg viewBox="0 0 16 16" fill="none" xmlns="http://www.w3.org/2000/svg">
<g clip-path="url(#clip0_14_1029)">
<path d="M10.8484 4.00527C11.0797 4.4009 11.509 4.66667 12.0003 4.66667C12.7367 4.66667 13.3337 4.06971 13.3337 3.33333C13.3337 2.59695 12.7367 2 12.0003 2C11.2639 2 10.667 2.59695 10.667 3.33333C10.667 3.57837 10.7331 3.80797 10.8484 4.00527ZM10.8484 4.00527L5.15222 7.32806M5.15222 7.32806C4.92094 6.93244 4.49167 6.66667 4.00033 6.66667C3.26395 6.66667 2.66699 7.26362 2.66699 8C2.66699 8.73638 3.26395 9.33333 4.00033 9.33333C4.49167 9.33333 4.92094 9.06756 5.15222 8.67194M5.15222 7.32806C5.26756 7.52537 5.33366 7.75496 5.33366 8C5.33366 8.24504 5.26756 8.47464 5.15222 8.67194M5.15222 8.67194L10.8484 11.9947M10.8484 11.9947C11.0797 11.5991 11.509 11.3333 12.0003 11.3333C12.7367 11.3333 13.3337 11.9303 13.3337 12.6667C13.3337 13.403 12.7367 14 12.0003 14C11.2639 14 10.667 13.403 10.667 12.6667C10.667 12.4216 10.7331 12.192 10.8484 11.9947Z" stroke="currentColor" stroke-width="1.33333" stroke-linecap="round" stroke-linejoin="round"/>
</g>
<defs>
<clipPath id="clip0_14_1029">
<rect width="16" height="16" fill="white"/>
</clipPath>
</defs>
</svg>
