<svg viewBox="0 0 16 16" fill="none" xmlns="http://www.w3.org/2000/svg">
<path d="M8.00033 5.33333V8M13.3337 6.7767C13.3337 11.1555 10.0216 13.1187 8.61751 13.7543L8.61574 13.755C8.46807 13.8219 8.39405 13.8554 8.22624 13.8842C8.11997 13.9024 7.88135 13.9024 7.77508 13.8842C7.60661 13.8553 7.53181 13.8216 7.38296 13.7543C5.97886 13.1187 2.66699 11.1555 2.66699 6.77669V4.13346C2.66699 3.38673 2.66699 3.01308 2.81232 2.72786C2.94015 2.47698 3.14397 2.27316 3.39486 2.14532C3.68007 2 4.05372 2 4.80046 2H11.2005C11.9472 2 12.32 2 12.6053 2.14532C12.8561 2.27316 13.0606 2.47698 13.1885 2.72786C13.3337 3.0128 13.3337 3.386 13.3337 4.13127V6.7767ZM8.03353 10V10.0667L7.96712 10.0668V10H8.03353Z" stroke="currentColor" stroke-width="1.33333" stroke-linecap="round" stroke-linejoin="round"/>
</svg>
