<svg viewBox="0 0 16 16" fill="none" xmlns="http://www.w3.org/2000/svg">
<path d="M5.33301 4.0946L5.33301 2.98028C5.33301 2.20375 5.33301 1.81548 5.56595 1.57424C5.7989 1.33301 6.17381 1.33301 6.92365 1.33301L9.0757 1.33301C9.82553 1.33301 10.2005 1.33301 10.4334 1.57424C10.6663 1.81548 10.6663 2.20375 10.6663 2.98028V4.0946" stroke="currentColor" stroke-width="1.33333"/>
<path d="M9.33301 7.47656V10.8099" stroke="currentColor" stroke-width="1.33333" stroke-linecap="round"/>
<path d="M6.66699 7.47656V10.8099" stroke="currentColor" stroke-width="1.33333" stroke-linecap="round"/>
<path d="M8 14C7.09593 14 6.46784 13.9997 5.98145 13.9502C5.50747 13.902 5.2365 13.8122 5.0293 13.6777C4.85597 13.5652 4.70115 13.4265 4.57031 13.2666C4.41399 13.0754 4.29525 12.8162 4.19531 12.3506C4.09275 11.8726 4.02307 11.2481 3.92383 10.3496L3.25488 4.28711L12.7451 4.28711L12.0762 10.3496C11.9769 11.2481 11.9072 11.8726 11.8047 12.3506C11.7048 12.8162 11.586 13.0754 11.4297 13.2666C11.2988 13.4265 11.144 13.5652 10.9707 13.6777C10.7635 13.8122 10.4925 13.902 10.0186 13.9502C9.53216 13.9997 8.90405 14 8 14Z" stroke="currentColor" stroke-width="1.33333"/>
<path d="M2 4.08105H14" stroke="currentColor" stroke-width="1.33333" stroke-linecap="round"/>
</svg>
