<svg viewBox="0 0 23 21" fill="none" xmlns="http://www.w3.org/2000/svg">
<path d="M11.3707 6.87472V11.458M2.63822 13.9786C1.59616 15.7835 1.07529 16.6863 1.15312 17.4268C1.22101 18.0728 1.56001 18.6596 2.08545 19.0413C2.68764 19.4788 3.72905 19.4788 5.81174 19.4788H16.9296C19.0123 19.4788 20.0536 19.4788 20.6558 19.0413C21.1812 18.6596 21.5204 18.0728 21.5883 17.4268C21.6661 16.6863 21.1454 15.7835 20.1033 13.9786L14.5463 4.35367C13.5043 2.54878 12.983 1.64649 12.3028 1.34363C11.7095 1.07947 11.0315 1.07947 10.4382 1.34363C9.75826 1.64636 9.23732 2.54866 8.19613 4.35205L2.63822 13.9786ZM11.4289 14.8955V15.0101L11.3136 15.0103V14.8955H11.4289Z" stroke="currentColor" stroke-width="2.29166" stroke-linecap="round" stroke-linejoin="round"/>
</svg>
