<svg viewBox="0 0 16 16" fill="none" xmlns="http://www.w3.org/2000/svg">
<path d="M13.3337 3.73372C13.3337 3.36036 13.3334 3.17353 13.2607 3.03092C13.1968 2.90548 13.0952 2.80357 12.9698 2.73965C12.8272 2.66699 12.6401 2.66699 12.2667 2.66699H3.7334C3.36003 2.66699 3.17353 2.66699 3.03092 2.73965C2.90548 2.80357 2.80357 2.90548 2.73965 3.03092C2.66699 3.17353 2.66699 3.36036 2.66699 3.73372V4.22523C2.66699 4.38829 2.66699 4.46988 2.68541 4.54661C2.70174 4.61463 2.72875 4.67961 2.7653 4.73926C2.80651 4.80651 2.86426 4.86426 2.97949 4.97949L6.35465 8.35465C6.46995 8.46995 6.52728 8.52728 6.56851 8.59456C6.60506 8.65421 6.63243 8.71941 6.64876 8.78744C6.667 8.86338 6.66699 8.944 6.66699 9.10376V12.2743C6.66699 12.8458 6.66699 13.1317 6.78735 13.3038C6.89245 13.4541 7.0546 13.5543 7.236 13.5811C7.44375 13.6118 7.69947 13.4842 8.21061 13.2286L8.74395 12.9619C8.95799 12.8549 9.06475 12.8012 9.14294 12.7214C9.21208 12.6508 9.26498 12.566 9.2972 12.4726C9.33364 12.3669 9.33366 12.247 9.33366 12.0077V9.10872C9.33366 8.94566 9.33366 8.86416 9.35208 8.78744C9.36841 8.71941 9.39541 8.65421 9.43197 8.59456C9.47292 8.52773 9.5301 8.47055 9.64387 8.35678L9.64616 8.35465L13.0213 4.97949C13.1366 4.86419 13.1939 4.80654 13.2352 4.73926C13.2717 4.67961 13.2991 4.61463 13.3154 4.54661C13.3337 4.47067 13.3337 4.38995 13.3337 4.23019V3.73372Z" stroke="currentColor" stroke-width="1.33333" stroke-linecap="round" stroke-linejoin="round"/>
</svg>
