<svg viewBox="0 0 16 16" fill="none" xmlns="http://www.w3.org/2000/svg">
<g clip-path="url(#clip0_15_942)">
<path d="M5.63813 14.3102C6.06354 14.3633 6.22307 14.0975 6.22307 13.8848C6.22307 13.6721 6.22307 13.1403 6.22307 12.3958C3.83015 12.9276 3.29839 11.226 3.29839 11.226C2.92616 10.2156 2.34123 9.94974 2.34123 9.94974C1.54359 9.41799 2.3944 9.41799 2.3944 9.41799C3.24522 9.47116 3.7238 10.322 3.7238 10.322C4.52144 11.6514 5.74449 11.2791 6.22307 11.0664C6.27625 10.4815 6.54212 10.1093 6.75483 9.89657C4.8405 9.68387 2.81981 8.9394 2.81981 5.58932C2.81981 4.63215 3.13887 3.88769 3.7238 3.24958C3.67062 3.09005 3.35157 2.18606 3.83015 1.01619C3.83015 1.01619 4.57462 0.803483 6.22307 1.92018C6.91436 1.70747 7.65882 1.6543 8.40328 1.6543C9.14775 1.6543 9.89221 1.76065 10.5835 1.92018C12.2319 0.803483 12.9764 1.01619 12.9764 1.01619C13.455 2.18606 13.1359 3.09005 13.0828 3.30275C13.6145 3.88769 13.9868 4.68533 13.9868 5.64249C13.9868 8.99258 11.9661 9.68387 10.0517 9.89657C10.3708 10.1624 10.6367 10.6942 10.6367 11.4918C10.6367 12.6617 10.6367 13.5657 10.6367 13.8848C10.6367 14.0975 10.7962 14.3633 11.2216 14.3102" stroke="currentColor" stroke-width="1.15634"/>
</g>
<defs>
<clipPath id="clip0_15_942">
<rect width="16" height="16" fill="white"/>
</clipPath>
</defs>
</svg>
