<svg viewBox="0 0 36 36" fill="none" xmlns="http://www.w3.org/2000/svg">
<path d="M26.7266 1.75609C28.5778 2.49191 30.3494 3.41603 32.0174 4.51435C32.2932 4.68177 32.5191 4.9202 32.6727 5.20529C32.8282 5.49038 32.9041 5.81192 32.8967 6.13712V18.2735C32.8653 22.1904 31.4268 25.9614 28.8518 28.8789C26.5137 31.5428 23.6498 33.679 20.4472 35.1494C19.8622 35.4497 19.2568 35.7063 18.6367 35.9171C18.2738 36.0276 17.8869 36.0276 17.5259 35.9171C12.946 33.9679 8.94175 31.2694 6.01124 27.0723C4.18037 24.4974 3.19921 21.4019 3.20662 18.2275C3.20662 14.2556 3.20661 10.3343 3.16589 6.36238C3.13256 5.97355 3.21031 5.58318 3.39173 5.23876C3.5713 4.89433 3.84715 4.61072 4.18407 4.4224C7.47372 2.27174 11.1688 0.842149 15.0341 0.225258L15.038 0.22477C15.766 0.133006 16.4571 0.0458896 17.1224 0H19.0384C19.6141 0.0919418 20.2343 0.133316 20.8156 0.225258C22.8371 0.505935 24.8198 1.01953 26.7266 1.75609Z" fill="currentColor"/>
<path d="M16.1649 16.0253V16.0897C17.5237 16.4988 18.1716 17.7171 18.1716 19.5099C18.1716 22.1992 17.3293 23.7853 14.4377 23.7853H10.4482V9.00098H13.9952C16.6258 9.00098 17.7088 10.5686 17.7088 12.8901C17.7088 14.5819 17.2478 15.5564 16.1649 16.0253ZM12.8752 15.2117H14.0989C15.1226 15.2117 15.404 14.6003 15.404 13.1752C15.404 11.75 15.0597 11.3041 14.0989 11.3041H12.8752V15.2117ZM12.8752 21.5235H14.3395C15.3225 21.5235 15.6983 21.0638 15.6983 19.3444C15.6983 17.6252 15.317 17.2252 14.3395 17.2252H12.8567L12.8752 21.5235Z" fill="white"/>
<path d="M26.2929 12.0766L24.4824 12.7707C24.201 11.4881 23.6623 10.9779 22.8552 10.9779C21.9721 10.9779 21.55 11.5065 21.55 12.4857C21.55 15.152 26.3892 15.437 26.3892 19.841C26.3892 22.489 24.9841 23.9785 22.7385 23.9785C20.8892 23.9785 19.3267 22.7189 18.9639 20.4387L20.9299 19.8273C21.2113 21.2936 21.9129 21.8223 22.6737 21.8223C23.5808 21.8223 24.0326 21.3121 24.0326 20.2318C24.0326 17.1196 19.1009 17.0138 19.1009 12.6788C19.1009 10.5043 20.4041 8.81261 22.6108 8.81261C24.649 8.79884 25.7912 10.0814 26.2929 12.0766Z" fill="white"/>
</svg>
