<svg viewBox="0 0 16 16" fill="none" xmlns="http://www.w3.org/2000/svg">
<path d="M4.66699 4.13346V11.8668C4.66699 12.6135 4.66699 12.9867 4.81232 13.2719C4.94015 13.5228 5.14397 13.727 5.39486 13.8548C5.67979 14 6.05299 14 6.79827 14H9.20239C9.94766 14 10.3203 14 10.6053 13.8548C10.8561 13.727 11.0606 13.5228 11.1885 13.2719C11.3337 12.987 11.3337 12.6143 11.3337 11.8691V4.13127C11.3337 3.386 11.3337 3.0128 11.1885 2.72786C11.0606 2.47698 10.8561 2.27316 10.6053 2.14532C10.32 2 9.94719 2 9.20046 2H6.80046C6.05372 2 5.68007 2 5.39486 2.14532C5.14397 2.27316 4.94015 2.47698 4.81232 2.72786C4.66699 3.01308 4.66699 3.38673 4.66699 4.13346Z" stroke="currentColor" stroke-width="1.33333" stroke-linecap="round" stroke-linejoin="round"/>
</svg>
