<svg viewBox="0 0 16 16" fill="none" xmlns="http://www.w3.org/2000/svg">
<path d="M5.33366 2.66699H4.80046C4.05372 2.66699 3.68007 2.66699 3.39486 2.81232C3.14397 2.94015 2.94015 3.14397 2.81232 3.39486C2.66699 3.68007 2.66699 4.05372 2.66699 4.80046V11.2005C2.66699 11.9472 2.66699 12.3204 2.81232 12.6056C2.94015 12.8565 3.14397 13.0606 3.39486 13.1885C3.67979 13.3337 4.05299 13.3337 4.79827 13.3337H5.33366M5.33366 2.66699H11.2005C11.9472 2.66699 12.32 2.66699 12.6053 2.81232C12.8561 2.94015 13.0606 3.14397 13.1885 3.39486C13.3337 3.67979 13.3337 4.05299 13.3337 4.79827V11.2027C13.3337 11.948 13.3337 12.3206 13.1885 12.6056C13.0606 12.8565 12.8561 13.0606 12.6053 13.1885C12.3203 13.3337 11.9477 13.3337 11.2024 13.3337H5.33366M5.33366 2.66699V13.3337M8.00033 7.33366H10.667M8.00033 5.33366H10.667" stroke="currentColor" stroke-width="1.33333" stroke-linecap="round" stroke-linejoin="round"/>
</svg>
