<svg viewBox="0 0 16 16" fill="none" xmlns="http://www.w3.org/2000/svg">
<path d="M6.87152 9.12791L10.1023 5.89714M13.4072 3.92546L10.6801 12.7885C10.4357 13.5828 10.3134 13.9801 10.1026 14.1118C9.9198 14.2261 9.69343 14.2452 9.4943 14.1626C9.26469 14.0673 9.07833 13.6952 8.70657 12.9517L6.97926 9.49707C6.92027 9.37908 6.89074 9.32033 6.85133 9.26921C6.81637 9.22384 6.77601 9.18297 6.73064 9.148C6.68068 9.10949 6.62292 9.08061 6.51019 9.02425L3.04762 7.29297C2.30409 6.9212 1.93228 6.73515 1.83701 6.50554C1.75439 6.30641 1.77323 6.07983 1.88747 5.89699C2.01919 5.68617 2.4165 5.56369 3.21104 5.31922L12.0741 2.59212C12.6987 2.39993 13.0112 2.3039 13.2222 2.38136C13.4059 2.44883 13.5508 2.59357 13.6183 2.77735C13.6957 2.98823 13.5996 3.30052 13.4076 3.92453L13.4072 3.92546Z" stroke="currentColor" stroke-width="1.33333" stroke-linecap="round" stroke-linejoin="round"/>
</svg>
