<svg viewBox="0 0 16 16" fill="none" xmlns="http://www.w3.org/2000/svg">
<g clip-path="url(#clip0_15_989)">
<rect x="6.01823" y="6.30827" width="3.96305" height="3.96305" rx="1.98153" stroke="currentColor" stroke-width="1.33333"/>
<path d="M9.74219 2.89355C9.8748 2.67065 10.1504 2.60826 10.3477 2.72559L10.3574 2.73145L11.5098 3.39062H11.5107C11.7592 3.53272 11.8656 3.83419 11.7793 4.0957L11.7305 4.2041C11.3563 4.84986 11.2381 5.59067 11.5967 6.21289C11.9553 6.83503 12.6554 7.10352 13.4004 7.10352C13.7274 7.10356 14 7.37397 14 7.70312V8.87598C13.9999 9.20297 13.7295 9.47554 13.4004 9.47559C12.6553 9.47559 11.9553 9.74397 11.5967 10.3662C11.2388 10.9873 11.356 11.7262 11.7285 12.3711V12.3721C11.894 12.662 11.7935 13.0256 11.5107 13.1875L11.5098 13.1885L10.3574 13.8477L10.3477 13.8535C10.1751 13.9562 9.94214 13.9214 9.79785 13.7617L9.74219 13.6855L9.67285 13.5664C9.30184 12.9204 8.71993 12.4482 8.00195 12.4482C7.28447 12.4483 6.7013 12.9201 6.32715 13.5654L6.32617 13.5664L6.25684 13.6855C6.12429 13.9082 5.8495 13.9705 5.65234 13.8535L5.64258 13.8477L4.48926 13.1885V13.1875C4.20523 13.0252 4.10695 12.6554 4.26953 12.374L4.26855 12.373C4.64217 11.7276 4.76069 10.9881 4.40234 10.3662C4.04373 9.74407 3.34363 9.47559 2.59863 9.47559C2.26969 9.47536 2.00008 9.20286 2 8.87598V7.70312C2 7.37618 2.26964 7.10374 2.59863 7.10352C3.34358 7.10352 4.0437 6.83493 4.40234 6.21289C4.76094 5.59062 4.64277 4.84989 4.26855 4.2041H4.26953C4.12729 3.95782 4.18457 3.64424 4.3916 3.46094L4.48926 3.39062L5.64258 2.73145L5.65234 2.72559C5.82489 2.62313 6.05696 2.65782 6.20117 2.81738L6.25684 2.89355L6.32617 3.0127C6.69716 3.6587 7.27915 4.12984 7.99707 4.12988C8.71471 4.12988 9.29866 3.65914 9.67285 3.01367V3.0127L9.74219 2.89355Z" stroke="currentColor" stroke-width="1.33333" stroke-miterlimit="10" stroke-linecap="round" stroke-linejoin="round"/>
</g>
<defs>
<clipPath id="clip0_15_989">
<rect width="16" height="16" fill="white"/>
</clipPath>
</defs>
</svg>
