<svg viewBox="0 0 16 16" fill="none" xmlns="http://www.w3.org/2000/svg">
<path d="M7.36629 3.28438C7.56586 2.67017 8.4348 2.67017 8.63436 3.28437L9.49709 5.93956C9.58634 6.21424 9.84231 6.40022 10.1311 6.40022H12.923C13.5688 6.40022 13.8373 7.22663 13.3148 7.60623L11.0562 9.24722C10.8225 9.41699 10.7247 9.7179 10.814 9.99258L11.6767 12.6478C11.8763 13.262 11.1733 13.7727 10.6508 13.3931L8.39218 11.7521C8.15852 11.5824 7.84213 11.5824 7.60847 11.7521L5.34983 13.3931C4.82736 13.7727 4.12437 13.262 4.32394 12.6478L5.18666 9.99258C5.27591 9.7179 5.17814 9.41699 4.94448 9.24722L2.68584 7.60623C2.16337 7.22663 2.43188 6.40022 3.0777 6.40022H5.86953C6.15834 6.40022 6.41432 6.21424 6.50357 5.93956L7.36629 3.28438Z" stroke="currentColor" stroke-width="1.33333" stroke-linecap="round" stroke-linejoin="round"/>
</svg>
