<svg viewBox="0 0 16 16" fill="none" xmlns="http://www.w3.org/2000/svg">
<path d="M7.3658 3.28438C7.56537 2.67017 8.43431 2.67017 8.63387 3.28437L9.4966 5.93956C9.58585 6.21424 9.84182 6.40022 10.1306 6.40022H12.9225C13.5683 6.40022 13.8368 7.22663 13.3143 7.60623L11.0557 9.24722C10.822 9.41699 10.7243 9.7179 10.8135 9.99258L11.6762 12.6478C11.8758 13.262 11.1728 13.7727 10.6503 13.3931L8.39169 11.7521C8.15804 11.5824 7.84164 11.5824 7.60798 11.7521L5.34935 13.3931C4.82687 13.7727 4.12388 13.262 4.32345 12.6478L5.18617 9.99258C5.27542 9.7179 5.17765 9.41699 4.94399 9.24722L2.68536 7.60623C2.16288 7.22663 2.4314 6.40022 3.07721 6.40022H5.86904C6.15786 6.40022 6.41383 6.21424 6.50308 5.93956L7.3658 3.28438Z" fill="currentColor"/>
</svg>
