<svg width="60" height="60" viewBox="0 0 60 60" fill="none" xmlns="http://www.w3.org/2000/svg">
<path fill-rule="evenodd" clip-rule="evenodd" d="M30 55C16.1929 55 5 43.8071 5 30C5 16.1929 16.1929 5 30 5C43.8071 5 55 16.1929 55 30C55 43.8071 43.8071 55 30 55Z" fill="#FFE4E9"/>
<path d="M38.3984 24.2504C39.1234 23.5254 39.1234 22.3254 38.3984 21.6004C37.6734 20.8754 36.4734 20.8754 35.7484 21.6004L29.9984 27.3504L24.2484 21.6004C23.5234 20.8754 22.3234 20.8754 21.5984 21.6004C20.8734 22.3254 20.8734 23.5254 21.5984 24.2504L27.3484 30.0004L21.5984 35.7504C20.8734 36.4754 20.8734 37.6754 21.5984 38.4004C21.9734 38.7754 22.4484 38.9504 22.9234 38.9504C23.3984 38.9504 23.8734 38.7754 24.2484 38.4004L29.9984 32.6504L35.7484 38.4004C36.1234 38.7754 36.5984 38.9504 37.0734 38.9504C37.5484 38.9504 38.0234 38.7754 38.3984 38.4004C39.1234 37.6754 39.1234 36.4754 38.3984 35.7504L32.6484 30.0004L38.3984 24.2504Z" fill="#C35372"/>
</svg>
