<svg width="60" height="60" viewBox="0 0 60 60" fill="none" xmlns="http://www.w3.org/2000/svg">
<path d="M19.525 5C10.425 5 5 10.425 5 19.525V40.45C5 49.575 10.425 55 19.525 55H40.45C49.55 55 54.975 49.575 54.975 40.475V19.525C55 10.425 49.575 5 40.475 5H19.525Z" fill="#E2E8F9"/>
<path fill-rule="evenodd" clip-rule="evenodd" d="M38.7479 25.3258C36.1521 25.3258 34.0479 23.2215 34.0479 20.6258C34.0479 18.03 36.1521 15.9258 38.7479 15.9258C41.3436 15.9258 43.4478 18.03 43.4478 20.6258C43.4478 23.2215 41.3436 25.3258 38.7479 25.3258Z" fill="#4259E9"/>
<path fill-rule="evenodd" clip-rule="evenodd" d="M21.2479 25.3258C18.6521 25.3258 16.5479 23.2215 16.5479 20.6258C16.5479 18.03 18.6521 15.9258 21.2479 15.9258C23.8436 15.9258 25.9479 18.03 25.9479 20.6258C25.9479 23.2215 23.8436 25.3258 21.2479 25.3258Z" fill="#4259E9"/>
<path d="M21.0021 32.2998C19.2521 32.2998 17.8271 33.7248 17.8271 35.4998C17.8271 42.2248 23.3021 47.6998 30.0271 47.6998C36.7521 47.6998 42.2271 42.2248 42.2271 35.4998C42.2021 33.7498 40.7521 32.2998 39.0021 32.2998H21.0021Z" fill="#4259E9"/>
</svg>
