<svg width="61" height="61" viewBox="0 0 61 61" fill="none" xmlns="http://www.w3.org/2000/svg">
<path fill-rule="evenodd" clip-rule="evenodd" d="M30.5 55.9163C16.4628 55.9163 5.08337 44.5369 5.08337 30.4997C5.08337 16.4624 16.4628 5.08301 30.5 5.08301C44.5373 5.08301 55.9167 16.4624 55.9167 30.4997C55.9167 44.5369 44.5373 55.9163 30.5 55.9163Z" fill="#F1F7F2"/>
<path d="M25.5424 39.0401L18.3494 31.8471C17.6124 31.1101 17.6124 29.8901 18.3494 29.153C19.0865 28.4159 20.3065 28.4159 21.0436 29.153L26.8894 34.9988L39.9536 21.9346C40.6907 21.1976 41.9107 21.1976 42.6478 21.9346C43.3849 22.6717 43.3849 23.8917 42.6478 24.6288L28.2365 39.0401C27.8807 39.3959 27.3978 39.5992 26.8894 39.5992C26.3811 39.5992 25.8982 39.3959 25.5424 39.0401Z" fill="#349A47"/>
</svg>
